<svg width="439" height="18" viewBox="0 0 439 18" fill="none" xmlns="http://www.w3.org/2000/svg">
<mask id="mask0_141_183" style="mask-type:luminance" maskUnits="userSpaceOnUse" x="0" y="0" width="439" height="18">
<path d="M219.659 17.8595C340.655 17.8595 438.742 13.916 438.742 9.05151C438.742 4.18699 340.655 0.24353 219.659 0.24353C98.6622 0.24353 0.575195 4.18699 0.575195 9.05151C0.575195 13.916 98.6622 17.8595 219.659 17.8595Z" fill="white"/>
</mask>
<g mask="url(#mask0_141_183)">
<path fill-rule="evenodd" clip-rule="evenodd" d="M219.316 19.5874C339.981 19.5874 438.399 15.6251 438.399 10.7794C438.399 5.93373 339.981 1.97144 219.316 1.97144C98.6513 1.97144 0.232422 5.93373 0.232422 10.7794C0.245601 15.6251 98.6513 19.5874 219.316 19.5874Z" fill="url(#paint0_radial_141_183)"/>
</g>
<defs>
<radialGradient id="paint0_radial_141_183" cx="0" cy="0" r="1" gradientUnits="userSpaceOnUse" gradientTransform="translate(219.323 10.78) scale(203.867 9.60609)">
<stop offset="0.4" stop-color="#53B8FF"/>
<stop offset="1" stop-color="#508DB6"/>
</radialGradient>
</defs>
</svg>
